<?xml version="1.0" encoding="UTF-8" standalone="no"?>
<!-- Generator: Adobe Illustrator 18.0.0, SVG Export Plug-In . SVG Version: 6.00 Build 0)  -->

<svg
   version="1.1"
   id="svg2"
   sodipodi:docname="logo-hdx.svg"
   inkscape:version="1.1.2 (b8e25be8, 2022-02-05)"
   x="0px"
   y="0px"
   viewBox="0 0 168.00001 194"
   enable-background="new 0 0 126.2 28.5"
   xml:space="preserve"
   width="168"
   height="194"
   inkscape:export-filename="/Users/caldwellst/Documents/repos/humdata/gghdx/man/figures/logo-hdx.png"
   inkscape:export-xdpi="200.15408"
   inkscape:export-ydpi="200.15408"
   xmlns:inkscape="http://www.inkscape.org/namespaces/inkscape"
   xmlns:sodipodi="http://sodipodi.sourceforge.net/DTD/sodipodi-0.dtd"
   xmlns:xlink="http://www.w3.org/1999/xlink"
   xmlns="http://www.w3.org/2000/svg"
   xmlns:svg="http://www.w3.org/2000/svg"><defs
   id="defs56"><pattern
     patternUnits="userSpaceOnUse"
     width="28.2275"
     height="28.1025"
     patternTransform="translate(0.03469,0.43047)"
     id="pattern597"><g
       id="g4318"
       transform="matrix(1.25,0,0,-1.25,-6.32375,32.80125)">
		
			<path
   id="path3383"
   inkscape:connector-curvature="0"
   fill="none"
   stroke="#1b1b1b"
   stroke-width="0.282"
   stroke-miterlimit="10"
   d="M 13.7,17.4 21.9,5.8" />
		
			<path
   id="path3387"
   inkscape:connector-curvature="0"
   fill="none"
   stroke="#1b1b1b"
   stroke-width="0.282"
   stroke-miterlimit="10"
   d="M 13.7,17.4 24.1,14.3" />
		
			<path
   id="path3391"
   inkscape:connector-curvature="0"
   fill="none"
   stroke="#1b1b1b"
   stroke-width="0.282"
   stroke-miterlimit="10"
   d="M 13.7,17.4 24.4,23" />
		
			<path
   id="path3395"
   inkscape:connector-curvature="0"
   fill="none"
   stroke="#1b1b1b"
   stroke-width="0.282"
   stroke-miterlimit="10"
   d="M 7.1,9.2 22,5.8" />
		
			<path
   id="path3399"
   inkscape:connector-curvature="0"
   fill="none"
   stroke="#1b1b1b"
   stroke-width="0.282"
   stroke-miterlimit="10"
   d="m 13.7,17.4 -5,5.5" />
		<g
   id="g3401">
			<path
   id="path3411"
   inkscape:connector-curvature="0"
   fill="#3878bb"
   d="m 18.1,17.4 c 0,-2.4 -2,-4.4 -4.4,-4.4 -2.4,0 -4.4,2 -4.4,4.4 0,2.4 2,4.4 4.4,4.4 2.5,0 4.4,-2 4.4,-4.4" />
			
				<path
   id="path3415"
   inkscape:connector-curvature="0"
   fill="none"
   stroke="#1b1b1b"
   stroke-width="0.282"
   stroke-miterlimit="10"
   d="m 18.1,17.4 c 0,-2.4 -2,-4.4 -4.4,-4.4 -2.4,0 -4.4,2 -4.4,4.4 0,2.4 2,4.4 4.4,4.4 2.5,0 4.4,-2 4.4,-4.4 z" />
			<path
   id="path3419"
   inkscape:connector-curvature="0"
   fill="#8a8b8b"
   d="M 23.9,5.8 C 23.9,4.7 23,3.9 22,3.9 c -1,0 -2,0.9 -2,1.9 0,1.1 0.9,1.9 1.9,1.9 1,0 2,-0.8 2,-1.9" />
			
				<path
   id="path3423"
   inkscape:connector-curvature="0"
   fill="none"
   stroke="#1b1b1b"
   stroke-width="0.282"
   stroke-miterlimit="10"
   d="M 23.9,5.8 C 23.9,4.7 23,3.9 22,3.9 c -1,0 -2,0.9 -2,1.9 0,1.1 0.9,1.9 1.9,1.9 1,0 2,-0.8 2,-1.9 z" />
			<path
   id="path3427"
   inkscape:connector-curvature="0"
   fill="#8a8b8b"
   d="m 26.3,14.3 c 0,-1.1 -0.9,-1.9 -1.9,-1.9 -1.1,0 -1.9,0.9 -1.9,1.9 0,1 0.9,1.9 1.9,1.9 1.1,0 1.9,-0.8 1.9,-1.9" />
			
				<path
   id="path3431"
   inkscape:connector-curvature="0"
   fill="none"
   stroke="#1b1b1b"
   stroke-width="0.282"
   stroke-miterlimit="10"
   d="m 26.3,14.3 c 0,-1.1 -0.9,-1.9 -1.9,-1.9 -1.1,0 -1.9,0.9 -1.9,1.9 0,1 0.9,1.9 1.9,1.9 1.1,0 1.9,-0.8 1.9,-1.9 z" />
			<path
   id="path3435"
   inkscape:connector-curvature="0"
   fill="#ec675f"
   d="m 27.5,23 c 0,-1.7 -1.4,-3.1 -3.1,-3.1 -1.7,0 -3.1,1.4 -3.1,3.1 0,1.7 1.4,3.1 3.1,3.1 1.7,0 3.1,-1.4 3.1,-3.1" />
			
				<path
   id="path3439"
   inkscape:connector-curvature="0"
   fill="none"
   stroke="#1b1b1b"
   stroke-width="0.282"
   stroke-miterlimit="10"
   d="m 27.5,23 c 0,-1.7 -1.4,-3.1 -3.1,-3.1 -1.7,0 -3.1,1.4 -3.1,3.1 0,1.7 1.4,3.1 3.1,3.1 1.7,0 3.1,-1.4 3.1,-3.1 z" />
			<path
   id="path3443"
   inkscape:connector-curvature="0"
   fill="#8a8b8b"
   d="M 9,9 C 9,8 8.1,7.1 7.1,7.1 6,7.1 5.2,8 5.2,9 5.2,10.1 6,11 7.1,11 8.1,11 9,10.1 9,9" />
			
				<path
   id="path3447"
   inkscape:connector-curvature="0"
   fill="none"
   stroke="#1b1b1b"
   stroke-width="0.282"
   stroke-miterlimit="10"
   d="M 9,9 C 9,8 8.1,7.1 7.1,7.1 6,7.1 5.2,8 5.2,9 5.2,10.1 6,11 7.1,11 8.1,11 9,10.1 9,9 Z" />
			<path
   id="path3451"
   inkscape:connector-curvature="0"
   fill="#8a8b8b"
   d="M 9.9,23.9 C 9.9,22.8 9,22 8,22 c -1.1,0 -2,0.8 -2,1.9 0,1.1 0.9,1.9 1.9,1.9 1.1,0 2,-0.9 2,-1.9" />
			<g
   id="g3453"
   transform="translate(9.8843,23.877)">
				
					<path
   id="path3455"
   inkscape:connector-curvature="0"
   fill="none"
   stroke="#1b1b1b"
   stroke-width="0.282"
   stroke-miterlimit="10"
   d="m 0,0 c 0,-1.1 -0.9,-1.9 -1.9,-1.9 -1.1,0 -1.9,0.8 -1.9,1.9 0,1.1 0.9,1.9 1.9,1.9 C -0.9,1.9 0,1.1 0,0 Z" />
			</g>
		</g>
	</g></pattern><clipPath
     clipPathUnits="userSpaceOnUse"
     id="clipPath728"><use
       x="0"
       y="0"
       xlink:href="#g724"
       id="use730"
       width="100%"
       height="100%" /></clipPath><clipPath
     clipPathUnits="userSpaceOnUse"
     id="clipPath836"><rect
       style="fill:#0000ff;fill-rule:evenodd"
       id="rect838"
       width="28.228001"
       height="28.102501"
       x="290.52081"
       y="509.02921" /></clipPath><linearGradient
     id="Border"
     inkscape:swatch="solid"><stop
       style="stop-color:#9d9d9d;stop-opacity:0;"
       offset="0"
       id="stop5578" /></linearGradient><linearGradient
     gradientTransform="matrix(0.99574843,0,0,0.99574843,0.38475073,4.0303057)"
     inkscape:collect="always"
     xlink:href="#Hex_color"
     id="linearGradient5580-5"
     x1="2.857033e-06"
     y1="947.86176"
     x2="181"
     y2="947.86176"
     gradientUnits="userSpaceOnUse" /><linearGradient
     id="Hex_color"
     inkscape:swatch="solid"><stop
       style="stop-color:#d2f2f0;stop-opacity:1;"
       offset="0"
       id="stop5608" /></linearGradient></defs>
<sodipodi:namedview
   id="base"
   inkscape:zoom="2"
   pagecolor="#ffffff"
   borderopacity="1.0"
   bordercolor="#666666"
   showgrid="false"
   fit-margin-left="0"
   inkscape:cy="103.75"
   fit-margin-top="0"
   inkscape:cx="6.75"
   inkscape:window-maximized="0"
   inkscape:window-y="25"
   inkscape:window-x="2240"
   inkscape:window-height="957"
   inkscape:window-width="1312"
   inkscape:current-layer="layer1"
   inkscape:document-units="px"
   inkscape:pageopacity="0"
   fit-margin-right="0"
   fit-margin-bottom="0"
   inkscape:pageshadow="2"
   inkscape:pagecheckerboard="0"
   width="168px">
	</sodipodi:namedview>
<g
   id="layer1"
   transform="translate(-290.48611,-508.59873)"
   inkscape:label="Layer 1"
   inkscape:groupmode="layer">
	
	
	
	<path
   inkscape:randomized="0"
   inkscape:rounded="0"
   inkscape:flatsided="true"
   sodipodi:arg2="2.0943951"
   sodipodi:arg1="1.5707963"
   sodipodi:r2="89.594658"
   sodipodi:r1="103.455"
   sodipodi:cy="947.86218"
   sodipodi:cx="90.5"
   sodipodi:sides="6"
   id="path4140-5"
   style="opacity:1;fill:url(#linearGradient5580-5);fill-opacity:1;stroke:#444444;stroke-width:2.87654124;stroke-miterlimit:4;stroke-dasharray:none;stroke-opacity:1"
   sodipodi:type="star"
   d="m 90.500003,1051.3172 -89.59466135,-51.72751 -2.77e-6,-103.45501 89.59465812,-51.7275 89.594663,51.7275 0,103.455 z"
   transform="matrix(0.9285457,0,0,0.9285457,291.08799,-273.75132)" /><g
   id="g726"
   clip-path="url(#clipPath836)"
   transform="matrix(2.9665824,1.9559746,-1.9559746,2.9665824,496.54535,-1513.0444)"><g
     inkscape:label="Clip"
     id="g724"><rect
       style="fill:url(#pattern597);stroke:none"
       transform="translate(290.48611,508.59873)"
       width="28.228001"
       height="28.102501"
       x="0.034689996"
       y="0.43046999"
       id="rect619" /></g></g>
<path
   style="fill:none;stroke:#000000;stroke-width:0;stroke-linecap:butt;stroke-linejoin:miter;stroke-miterlimit:4;stroke-dasharray:none;stroke-opacity:1"
   d="m 333.48611,560.59873 c 0,0 24.18466,-0.44937 43.5,0 m 0,0 c 19.31534,0.44937 40.5,2 40.5,2"
   id="path3062"
   sodipodi:nodetypes="cccc" /><text
   xml:space="preserve"
   style="font-style:normal;font-weight:normal;font-size:32px;line-height:1.25;font-family:sans-serif;fill:#000000;fill-opacity:1;stroke:none"
   x="330.48611"
   y="558.09875"
   id="text12538"><tspan
     sodipodi:role="line"
     id="tspan12536"
     x="330.48611"
     y="558.09875"
     style="font-style:normal;font-variant:normal;font-weight:bold;font-stretch:normal;font-size:32px;font-family:'Source Sans Pro';-inkscape-font-specification:'Source Sans Pro Bold';fill:#444444;fill-opacity:1">gghdx</tspan></text></g>
</svg>
